<svg width="56" height="56" fill="none" xmlns="http://www.w3.org/2000/svg"><circle cx="28" cy="28" r="28" fill="#FCB72B"/><path fill-rule="evenodd" clip-rule="evenodd" d="M37.433 26.833H38.5a.389.389 0 0 0 .39-.389v-3.11a.389.389 0 0 0-.39-.39h-3.648l-.63-1.258v-1.464a.389.389 0 0 0-.389-.389H31.5a.389.389 0 0 0-.389.39v1.555c0 .215.174.389.39.389h2.092l.63 1.258v2.242a1.167 1.167 0 0 0-2.334 0v-.778a.389.389 0 0 0-.389-.39h-3.063l-1.215-.303V17.89c0-.86-.696-1.556-1.555-1.556H24.11c-.859 0-1.555.697-1.555 1.556v4.278H20.61c-.644 0-1.166.522-1.166 1.166V24.5h-2.723a.389.389 0 0 0-.275.664l.892.891-.892.892a.39.39 0 0 0 .275.664h3.89c.644 0 1.166-.522 1.166-1.167v-1.166h.778v3.889h-1.167a2.722 2.722 0 0 0-2.691 2.333H17.5a.389.389 0 0 0-.389.389v1.555c0 .215.174.39.39.39h1.166v.777h-1.945a.389.389 0 0 0-.389.389v1.556c0 .214.175.388.39.388H21a2.722 2.722 0 1 0 5.445 0h7a2.722 2.722 0 0 0 5.444 0h.389a.39.39 0 0 0 .38-.476l-2.225-9.635Zm-5.544-1.166a1.167 1.167 0 1 0 2.333 0v8.166h-1.166v-.389c0-.644-.523-1.166-1.167-1.166V28a.389.389 0 0 0-.389-.389h-4.278v-1.057l1.073.268c.03.007.062.011.094.011H31.5a.389.389 0 0 0 .39-.389v-.777Zm1.556-4.278h-1.556v-.778h1.556v.778ZM18.667 36.167v-.778H17.11v.778h1.556Zm0-3.111h-.778v-.778h.778v.778Zm19.444-9.334h-.777v2.333h.777v-2.333Zm-3.11 0h1.555v2.333H35v-2.333Zm-2.723 9.722a.389.389 0 0 0-.389-.389h-1.555v.778h1.944v-.389Zm-3.983-8.178c.03.008.062.012.094.012h2.722v.777h-2.674l-2.77-.692v-.754l2.628.657Zm-4.184-8.155a.778.778 0 0 0-.777.778v1.555H24.5v-.777c0-.215.174-.39.39-.39h1.555v-.388a.778.778 0 0 0-.778-.778H24.11Zm.778 3.111a.389.389 0 0 0 .389-.389v-.777h1.167v.877l-3.111.933v-.644h1.555Zm1.556 2.333v-1.81l-3.111.933v.877h3.11Zm0 .778v.669l-1.073-.268a.389.389 0 0 0-.483.377v1.556c0 .178.121.333.294.377l1.262.315v1.252h-3.111v-4.278h3.11Zm4.666 8.945v-3.89h-7.777v.779h6.61c.215 0 .39.174.39.388v2.723h.777Zm-10.11-5.834a.389.389 0 0 1-.39.39h-2.95l.503-.504a.389.389 0 0 0 0-.55l-.503-.502h3.34v1.166Zm-.779-3.11V24.5h2.334v-1.556H20.61a.389.389 0 0 0-.389.39Zm3.5 15.555a1.947 1.947 0 0 1-1.944-1.945h.778a1.167 1.167 0 0 0 2.333 0h.778a1.947 1.947 0 0 1-1.945 1.945Zm0-1.556a.389.389 0 0 0 .39-.389h-.778c0 .215.174.39.388.39Zm2.723-1.166H21v-3.89c0-.214.174-.388.39-.388h4.666c.214 0 .389.174.389.389v3.889Zm.777 0H28v-4.278a1.947 1.947 0 0 0-1.944-1.945h-4.667a1.947 1.947 0 0 0-1.944 1.945v4.278h.777v-3.89c0-.644.523-1.166 1.167-1.166h4.667c.644 0 1.166.522 1.166 1.167v3.889Zm.735-6.223h1.599v3.89h-.778v-1.945c0-.732-.296-1.434-.82-1.945Zm.82 4.667v1.556h5.445V34.61h-5.444Zm7.39 4.278a1.947 1.947 0 0 1-1.945-1.945H35a1.167 1.167 0 1 0 2.334 0h.777a1.947 1.947 0 0 1-1.944 1.945Zm0-1.556a.389.389 0 0 0 .389-.389h-.778c0 .215.174.39.389.39ZM35 36.167v-2.723h.778v-.777H35v-5.834h1.633l2.154 9.334H35Zm2.334-3.5h-.778v.777h.778v-.777Zm-15.556 0h.778v.777h-.778v-.777Zm2.333 0h-.777v.777h.777v-.777Zm.778 0h.778v.777h-.778v-.777Zm8.167-7.39a.389.389 0 1 1 0 .778.389.389 0 0 1 0-.777Zm-16.722-6.222h5.055v.778h-5.055v-.777Zm5.444 1.556H17.11v.778h4.667v-.778Z" fill="#495567"/></svg>