<svg width="56" height="56" fill="none" xmlns="http://www.w3.org/2000/svg"><circle cx="28" cy="28" r="28" fill="#FCB72B"/><path d="M26.29 36.342a.486.486 0 0 0-.481.483.486.486 0 0 0 .482.482.485.485 0 0 0 .341-.823.487.487 0 0 0-.341-.142Z" fill="#000"/><path fill-rule="evenodd" clip-rule="evenodd" d="m35.898 28.244-1.124-5.078c.303-.04.57-.195.759-.419.222.14.484.22.765.22h.965a.482.482 0 0 0 .482-.482v-1.93a.482.482 0 0 0-.482-.482h-.965c-.29 0-.559.085-.785.232a1.202 1.202 0 0 0-.902-.407h-2.847c-.512 0-.95.32-1.124.771h-1.143c-.692 0-1.254.563-1.254 1.254 0 .692.562 1.255 1.254 1.255h2.483v.971a.482.482 0 1 0 .964 0v-.972h.844L35 28.648l-2.291 4.082c-.25.444-.723.72-1.233.72h-5.72a4.058 4.058 0 0 0-4.024-3.571c-.917 0-1.781.299-2.501.863l-.003.003a4.028 4.028 0 0 0-1.52 2.705h-.991a6.394 6.394 0 0 1 6.385-6.27h3.422c.27 0 .49.22.49.491v4.332c0 .266.216.482.482.482h2.567a2.877 2.877 0 0 0 2.876-2.873l.003-1.603a.482.482 0 0 0-.965-.002l-.002 1.603a1.913 1.913 0 0 1-1.912 1.91h-2.085v-3.85c0-.246-.062-.48-.17-.683a1.448 1.448 0 0 0-.722-2.7h-1.76c-.17 0-.332.029-.483.082v-4.231c0-.798-.65-1.447-1.447-1.447h-3.112a4.54 4.54 0 0 0-4.476 3.816.483.483 0 0 0-.023.145V22.662a4.552 4.552 0 0 0-.034.563v2.51a1.45 1.45 0 0 0 1.231 1.43l1.068 1.068a7.331 7.331 0 0 0-2.299 5.336v.364c0 .267.216.482.482.482h2.711a.494.494 0 0 0-.01.097c0 .7.26 1.34.686 1.831h-3.387a.482.482 0 0 0 0 .965h5.459l.04.002a2.8 2.8 0 0 0 2.798-2.798.494.494 0 0 0-.01-.097h6.956c.76 0 1.47-.364 1.914-.966h.61a2.794 2.794 0 0 0 .476 2.894H28.22a.482.482 0 0 0 0 .965h8.311l.056.002a2.8 2.8 0 0 0 2.587-3.86h.79a.482.482 0 0 0 .482-.483 4.73 4.73 0 0 0-4.548-4.722Zm-10.574-2.993h1.76a.483.483 0 0 1 0 .965h-1.76a.483.483 0 0 1 0-.965Zm-8.608-2.086-.001.06v2.508c0 .266.216.483.482.483h6.198a.483.483 0 0 0 .482-.483v-5.595a.483.483 0 0 0-.482-.482h-3.112a3.575 3.575 0 0 0-3.41 2.514h5.122a.482.482 0 1 1 0 .965h-5.278l-.001.03Zm1.646 4.015h1.103a7.353 7.353 0 0 0-.67.433l-.433-.433Zm3.388 9.163a1.835 1.835 0 0 0 1.814-1.832c0-.033.003-.065.01-.097h-3.686c.007.032.01.064.01.097 0 .992.792 1.802 1.777 1.831h.066l.009.001Zm-3.07-2.893a3.069 3.069 0 0 1 1.143-1.947c.002 0 .003-.002.005-.003a3.057 3.057 0 0 1 1.903-.656 3.093 3.093 0 0 1 3.05 2.606H18.68Zm18.1-12.413h-.482a.483.483 0 0 0 0 .965h.482v-.965Zm-7.573.886c0-.16.13-.289.29-.289h1.062v.34c0 .081.009.161.024.239h-1.086a.29.29 0 0 1-.29-.29Zm2.557.29h2.848a.24.24 0 0 0 .239-.24v-.871a.24.24 0 0 0-.24-.24h-2.847a.24.24 0 0 0-.24.24v.871c0 .132.108.24.24.24ZM38.42 34.51a1.835 1.835 0 0 1-1.814 1.832h-.074a1.835 1.835 0 0 1-1.438-2.895h2.987c.22.31.34.68.34 1.063Zm-2.629-5.303-1.84 3.276h5.5a3.765 3.765 0 0 0-3.66-3.276Z" fill="#495567"/><path d="M32.462 26.561a.482.482 0 1 0 0-.965h-.002a.482.482 0 1 0 .002.965Z" fill="#000"/></svg>